<svg height="121.405273" preserveAspectRatio="xMidYMid" viewBox="-56.9687439 14.29736328 613.93748779 121.40527344" width="613.937488" xmlns="http://www.w3.org/2000/svg" xmlns:xlink="http://www.w3.org/1999/xlink"><linearGradient id="a" gradientUnits="objectBoundingBox" x1="0" x2="1" y1=".5" y2=".5"><stop offset="0" stop-color="#f0f"/><stop offset="1" stop-color="#0ff"/></linearGradient><path d="m7.3-9.15h-5.76q-.39-1.41-.39-3.11 0-1.69 1.22-2.97 1.21-1.28 3.45-1.28h2.76l1.4-8.26h-6.46q-.38-1.41-.38-3.13 0-1.73 1.21-2.98 1.22-1.25 3.46-1.25h3.39l1.02-6.21q.71-3.9 4.23-3.9 1.41 0 3.26.77l-1.47 9.34h7.1l1.03-6.21q.32-1.85 1.41-2.88 1.08-1.02 2.68-1.02 1.6 0 3.33.77l-1.41 9.34h6.08q.32 1.47.32 3.17 0 1.7-1.18 2.94-1.18 1.25-3.42 1.25h-2.95l-1.28 8.26h6.47q.38 1.47.38 3.17 0 1.69-1.22 2.94-1.21 1.25-3.45 1.25h-3.27l-.76 5.25q-.26 1.85-1.67 2.88-1.41 1.02-3.1 1.02-1.7 0-3.3-.77l1.47-8.38h-6.78l-.77 5.25q-.25 1.85-1.66 2.88-1.41 1.02-3.11 1.02-1.69 0-3.29-.77zm9.79-15.62-1.22 8.26h6.85l1.41-8.26zm70.14 26.05q-7.74 0-7.74-6.02 0-2.62 1.12-7.71 1.12-5.09 1.5-7.13.9-4.68.9-6.15 0-3.26-2.43-3.26-1.6 0-3.14 2.21-1.54 2.2-2.24 6.62l-3.97 20.16-12.48 1.28 3.46-17.41q.57-2.88 1.09-6.14.51-3.27.51-3.78 0-2.94-2.18-2.94-1.47 0-3.07 2.17-1.6 2.18-2.5 6.66l-3.9 20.16-12.61 1.28 6.72-33.92 10.43-1.28-1.08 6.46q1.66-3.45 4.73-4.96 3.07-1.5 7.87-1.5 2.76 0 4.55 1.34 1.79 1.35 2.37 3.52 1.08-2.24 3.87-3.55 2.78-1.31 6.21-1.31 3.42 0 5.12.74 1.69.73 2.72 1.95 1.72 2.24 1.72 6.33 0 4.04-1.72 12.42-.9 4.1-.9 5.6 0 1.5.86 2.4.87.9 2.15 1.02-.64 2.18-2.85 3.46-2.21 1.28-5.09 1.28zm15.65-3.2q-1.5-1.66-2.18-4.29-.67-2.62-.67-6.91 0-4.29 1.47-8.19 1.48-3.91 4.16-6.72 5.51-5.89 14.6-5.89 3.26 0 5.63 1.09l10.94-1.09-4.73 24.96q-.2.77-.2 2.18 0 1.4.87 2.3.86.9 2.14 1.02-.64 2.18-2.97 3.46-2.34 1.28-4.96 1.28-2.63 0-4.39-.99-1.76-.99-2.27-2.66-1.02 1.6-3.2 2.63-2.18 1.02-5.09 1.02-2.91 0-5.28-.77-2.37-.77-3.87-2.43zm13.5-25.98q-.73 1.15-1.37 3.1-.64 1.95-1.7 7.17-1.05 5.21-1.05 8.93 0 3.71.57 4.8.58 1.08 1.6 1.08 2.05 0 3.55-1.95 1.51-1.95 2.08-5.41l3.4-18.75q-1.35-1.15-2.92-1.15-1.56 0-2.49.51-.93.51-1.67 1.67zm40.42-2.44q3.46-3.58 10.75-3.58 4.03 0 6.24 2.14 2.21 2.15 2.21 6.08 0 3.94-2.21 6.72-2.21 2.79-6.3 3.94.32 1.28.77 2.62l.89 2.56q1.22 3.27 2.18 4.42.96 1.15 2.24 1.54-.71 2.62-3.27 4.03-2.04 1.15-4.86 1.15-8.26 0-9.34-12.74-.2-1.79-.2-3.58 3.2-.9 5.44-3.9 2.24-3.01 2.24-6.53 0-3.52-2.49-3.52-1.79 0-3.2 1.98-1.41 1.99-2.05 5.38l-4.22 21.63-12.93 1.28 8.96-46.08 12.86-1.28-1.47 7.62q-.96 5.37-2.24 8.12zm48.06 19.52q1.6 1.09 1.6 3.49 0 2.4-1.21 3.94-1.22 1.53-3.2 2.56-4.1 2.11-8.51 2.11-4.42 0-7.01-.96-2.59-.96-4.32-2.75-3.39-3.39-3.39-9.6 0-9.67 5.24-15.55 5.64-6.34 15.43-6.34 6.08 0 9.09 2.56 2.24 1.92 2.24 5.06 0 11.26-19.46 11.26-.26 1.66-.26 3.07 0 2.95 1.32 4.07 1.31 1.12 3.74 1.12 2.43 0 5.02-1.12 2.6-1.12 3.68-2.92zm-13.05-6.97q4.54 0 7.17-2.82 2.62-2.69 2.62-6.97 0-1.48-.54-2.28-.55-.8-1.64-.8-1.08 0-2.01.42-.93.42-1.89 1.82-2.37 3.2-3.71 10.63zm40.32-4.67q.89-2.37.89-4.42 0-3.78-3.07-3.78-1.6 0-2.91 1.44-1.31 1.44-1.31 3.24 0 1.28 1.02 2.3 1.47 1.41 5.25 3.71 3.78 2.31 5.22 4.19 1.44 1.89 1.44 4.48 0 2.6-1.25 4.96-1.25 2.37-3.49 4.04-4.8 3.58-12.48 3.58-4.16 0-7.36-2.18-3.2-2.11-3.2-4.6 0-2.5 1.82-3.97 1.83-1.47 4.52-1.47 2.68 0 4.35 1.02-.83 2.11-.83 3.52 0 4.22 3.58 4.22 1.54 0 2.56-.96 1.02-.96 1.02-2.62 0-3.26-5.5-6.72-4.48-2.94-5.5-4.1-1.73-2.04-1.73-4.6 0-2.56 1.21-5 1.22-2.43 3.46-4.16 4.67-3.58 12.8-3.58 4.16 0 6.62 1.66 2.47 1.67 2.47 4.48 0 2.82-1.7 4.42-1.69 1.6-4.77 1.6-2.11 0-3.13-.7zm12.99 16.06q0-1.73.9-6.08l3.39-17.28h-3.78l.26-1.92q7.68-2.3 15.1-7.94h3.07l-1.53 6.98h4.99l-.58 2.88h-4.92l-3.27 17.28q-.83 3.97-.83 5.31 0 3.07 2.69 3.71-.64 2.18-2.95 3.46-2.3 1.28-5.56 1.28-3.27 0-5.12-2.05-1.86-2.05-1.86-5.63zm54.27-.7q0 2.81 2.88 3.64-.7 2.37-3.45 3.65-2.31 1.09-4.84 1.09-2.52 0-3.84-.67-1.31-.67-2.01-1.76-1.15-1.67-1.15-4.8 0-1.86 1.02-6.98l.9-4.86q1.08-5.57 1.08-7.62 0-3.58-1.98-3.58-2.5 0-4.1 3.65-.64 1.4-1.08 3.52l-4.36 21.82-12.86 1.28 9.02-46.08 12.87-1.28-.51 2.56q-1.8 9.86-3.33 13.18 3.58-3.58 10.17-3.58 6.98 0 8.26 4.61.45 1.47.45 2.75 0 1.28-.1 2.27-.09.99-.41 2.79l-.84 4.6-1.47 7.24q-.32 1.47-.32 2.56zm23.43 3.58q-1.99 4.8-8.32 4.8-3.27 0-5.32-2.24-1.72-1.98-1.72-3.97 0-5.18 2.36-15.29l2.37-12.42 12.99-1.28-3.9 20.22q-1.09 4.74-1.09 6.4 0 3.65 2.63 3.78zm-9.48-38.02q0-2.49 2.08-3.84 2.08-1.34 5.09-1.34 3.01 0 4.83 1.34 1.83 1.35 1.83 3.84 0 2.5-2.02 3.78-2.01 1.28-5.02 1.28-3.01 0-4.9-1.28-1.89-1.28-1.89-3.78zm41.99 42.82q-7.75 0-7.75-6.02.07-1.66.58-4.48l1.15-5.88q1.73-8.32 1.73-10.18 0-3.71-2.18-3.71-3.64 0-5.56 9.53l-3.78 19.46-12.86 1.28 6.65-33.98 10.5-1.22-1.03 6.27q3.01-6.27 12.23-6.27 4.48 0 6.37 1.89 1.88 1.89 1.88 6.11 0 3.97-2.04 13.25-.96 4.16-.96 5.73 0 1.56.86 2.46.86.9 2.14 1.02-.64 2.18-2.84 3.46-2.21 1.28-5.09 1.28zm17.6-28.03q2.17-3.07 5.47-5.12 3.3-2.05 7.33-2.05 4.03 0 5.95 1.28l12.54-1.28-4.35 24.58q-2.24 12.54-6.97 17.47-4.55 4.67-13.38 4.67-6.72 0-10.56-2.11-3.84-2.11-3.84-5.63 0-2.63 1.98-4.13 1.99-1.51 5.06-1.51 2.69 0 4.74 1.22 1.21.64 1.79 1.54-1.47 1.28-1.47 3.39 0 2.75 2.56 2.75 4.28 0 6.72-10.11.7-2.75 1.28-5.51-2.88 3.52-9.41 3.52-4.55 0-7.17-2.17-2.62-2.18-2.62-7.3 0-3.2 1.08-6.81 1.09-3.62 3.27-6.69zm8.32 13.69q0 4.36 2.24 4.36 1.53 0 3.01-1.67 1.15-1.34 1.6-3.33l3.26-16.44q-.32-.07-.64-.2-.64-.25-1.47-.25-3.91 0-6.21 6.4-1.79 4.99-1.79 11.13zm44.61-9.4q.89-2.37.89-4.42 0-3.78-3.07-3.78-1.6 0-2.91 1.44-1.31 1.44-1.31 3.24 0 1.28 1.02 2.3 1.47 1.41 5.25 3.71 3.77 2.31 5.21 4.19 1.44 1.89 1.44 4.48 0 2.6-1.24 4.96-1.25 2.37-3.49 4.04-4.8 3.58-12.48 3.58-4.16 0-7.36-2.18-3.2-2.11-3.2-4.6 0-2.5 1.82-3.97 1.83-1.47 4.51-1.47 2.69 0 4.36 1.02-.84 2.11-.84 3.52 0 4.22 3.59 4.22 1.53 0 2.56-.96 1.02-.96 1.02-2.62 0-3.26-5.5-6.72-4.48-2.94-5.51-4.1-1.72-2.04-1.72-4.6 0-2.56 1.21-5 1.22-2.43 3.46-4.16 4.67-3.58 12.8-3.58 4.16 0 6.62 1.66 2.47 1.67 2.47 4.48 0 2.82-1.7 4.42-1.7 1.6-4.77 1.6-2.11 0-3.13-.7z" fill="url(#a)" transform="translate(31.695001 104.76)"/></svg>