<?xml version="1.0" standalone="no"?>
<!DOCTYPE svg PUBLIC "-//W3C//DTD SVG 20010904//EN"
 "http://www.w3.org/TR/2001/REC-SVG-20010904/DTD/svg10.dtd">
<svg version="1.0" xmlns="http://www.w3.org/2000/svg"
 width="60.000000pt" height="60.000000pt" viewBox="0 0 60.000000 60.000000"
 preserveAspectRatio="xMidYMid meet">

<g transform="translate(0.000000,60.000000) scale(0.100000,-0.100000)"
fill="#000000" stroke="none">
<path d="M10 345 c0 -355 -20 -335 335 -335 l245 0 0 63 c0 60 -2 65 -40 102
l-40 39 0 -62 0 -62 -194 0 c-164 0 -197 3 -210 16 -13 13 -16 46 -16 210 l0
194 62 0 62 0 -39 40 c-37 38 -42 40 -102 40 l-63 0 0 -245z"/>
<path d="M355 540 l49 -50 -86 -88 c-104 -106 -119 -147 -74 -207 14 -19 20
-15 130 95 l116 114 50 -49 50 -49 0 142 0 142 -142 0 -142 0 49 -50z"/>
</g>
</svg>
